<svg width="64" height="73" viewBox="0 0 64 73" fill="none" xmlns="http://www.w3.org/2000/svg">
<g clip-path="url(#clip0_37_68)">
<path d="M32.0218 73.0003C31.8037 73.0003 31.6292 72.9566 31.4546 72.8254L15.6182 62.6805C15.3129 62.4618 15.0947 62.112 15.0947 61.7622V10.294C15.0947 9.90042 15.3129 9.55059 15.6182 9.33195L31.4546 0.149012C31.8037 -0.0259009 32.1963 -0.0696292 32.5453 0.149012C32.8943 0.323925 33.1125 0.71748 33.1125 1.11103V71.9071C33.1125 72.3007 32.8943 72.6942 32.5453 72.8691C32.3708 72.9566 32.1963 73.0003 32.0218 73.0003ZM17.276 61.1937L30.9311 69.9393V2.99135L17.276 10.9499V61.1937Z" fill="#CC6666"/>
<path d="M19.7631 17.9467L21.9444 16.7223C22.1625 16.5912 22.4679 16.7661 22.4679 17.0284V21.6636C22.4679 21.7948 22.3806 21.926 22.2498 22.0135L20.0248 22.8006C19.8067 22.888 19.5449 22.7131 19.5449 22.4508V18.2091C19.5885 18.1216 19.6322 17.9905 19.7631 17.9467Z" fill="#CC6666"/>
<path d="M19.85 30.0151L22.0313 28.7907C22.2494 28.6595 22.5548 28.8344 22.5548 29.0968V33.732C22.5548 33.8632 22.4676 33.9944 22.3367 34.0818L20.1117 34.8689C19.8936 35.0001 19.6318 34.8252 19.6318 34.5628V30.3212C19.6755 30.19 19.7191 30.1026 19.85 30.0151Z" fill="#CC6666"/>
<path d="M19.7631 39.8979L21.9444 38.6735C22.1625 38.5423 22.4679 38.7172 22.4679 38.9796V43.6148C22.4679 43.746 22.3806 43.8772 22.2498 43.9646L20.0248 44.7517C19.8067 44.8392 19.5449 44.6643 19.5449 44.4019V40.1603C19.5885 40.0728 19.6322 39.9416 19.7631 39.8979Z" fill="#CC6666"/>
<path d="M25.1722 47.4197L27.8334 45.9767C28.1388 45.8455 28.4442 46.0204 28.4442 46.3265V51.9237C28.4442 52.0986 28.3133 52.2736 28.1825 52.3173L25.5212 53.2793C25.2595 53.3668 24.9541 53.1919 24.9541 52.8858V47.7695C24.9541 47.6384 25.0414 47.4634 25.1722 47.4197Z" fill="#CC6666"/>
<path d="M25.2601 28.0916L27.9213 26.6486C28.2267 26.5174 28.5321 26.6923 28.5321 26.9984V32.5956C28.5321 32.7705 28.4012 32.9454 28.2704 32.9892L25.6091 33.9512C25.3474 34.0386 25.042 33.8637 25.042 33.5576V28.4414C25.042 28.3102 25.1292 28.1353 25.2601 28.0916Z" fill="#CC6666"/>
<path d="M32.0223 73.0001C31.8478 73.0001 31.6733 72.9564 31.4988 72.8689C31.1498 72.694 30.9316 72.3004 30.9316 71.9069V1.11079C30.9316 0.717231 31.1498 0.367404 31.4988 0.148763C31.8478 -0.0261502 32.2404 -0.0261502 32.5894 0.148763L48.4258 9.3317C48.7749 9.50661 48.9494 9.90017 48.9494 10.2937V61.7619C48.9494 62.1555 48.7749 62.4616 48.4258 62.6802L32.5894 72.8252C32.4149 72.9563 32.1968 73.0001 32.0223 73.0001ZM33.113 2.9911V69.8954L46.768 61.1497V10.9496L33.113 2.9911Z" fill="#CC6666"/>
<path d="M10.6885 61.2377C10.4703 61.2377 10.2958 61.194 10.1213 61.0628L0.523517 54.8971C0.174506 54.6785 0 54.3287 0 53.9788V22.7568C0 22.3633 0.218132 22.0135 0.523517 21.7948L10.1213 16.1976C10.4703 16.0227 10.863 16.0227 11.212 16.1976C11.561 16.3725 11.7791 16.7661 11.7791 17.1596V60.1008C11.7791 60.4943 11.561 60.8879 11.212 61.0628C11.0375 61.1503 10.863 61.2377 10.6885 61.2377ZM2.18132 53.3666L9.59782 58.133V19.0837L2.18132 23.4128V53.3666Z" fill="#CC6666"/>
<path d="M10.6883 61.2379C10.5138 61.2379 10.3393 61.1942 10.1648 61.1068C9.81579 60.9318 9.59766 60.5383 9.59766 60.1447V17.2036C9.59766 16.81 9.81579 16.4602 10.1648 16.2415C10.5138 16.0666 10.9064 16.0666 11.2555 16.2415L16.447 19.2588C16.9705 19.5649 17.145 20.2208 16.8396 20.7455C16.5343 21.2703 15.8799 21.4452 15.3563 21.1391L11.779 19.0839V58.1332L15.5745 55.6844C16.098 55.3783 16.7524 55.5095 17.1014 56.0343C17.4504 56.559 17.2759 57.2149 16.7524 57.5648L11.2555 61.063C11.081 61.1505 10.9064 61.2379 10.6883 61.2379Z" fill="#CC6666"/>
<path d="M44.2371 17.9467L42.0557 16.7223C41.8376 16.5912 41.5322 16.7661 41.5322 17.0284V21.6636C41.5322 21.7948 41.6195 21.926 41.7504 22.0135L43.9753 22.8006C44.1934 22.888 44.4552 22.7131 44.4552 22.4508V18.2091C44.4116 18.1216 44.3679 17.9905 44.2371 17.9467Z" fill="#CC6666"/>
<path d="M44.1502 30.0151L41.9688 28.7907C41.7507 28.6595 41.4453 28.8344 41.4453 29.0968V33.732C41.4453 33.8632 41.5326 33.9944 41.6634 34.0818L43.8884 34.8689C44.1065 34.9564 44.3683 34.7815 44.3683 34.5191V30.2775C44.3247 30.19 44.2374 30.1026 44.1502 30.0151Z" fill="#CC6666"/>
<path d="M44.2371 39.8979L42.0557 38.6735C41.8376 38.5423 41.5322 38.7172 41.5322 38.9796V43.6148C41.5322 43.746 41.6195 43.8772 41.7504 43.9646L43.9753 44.7517C44.1934 44.8392 44.4552 44.6643 44.4552 44.4019V40.1603C44.4116 40.0728 44.3679 39.9416 44.2371 39.8979Z" fill="#CC6666"/>
<path d="M38.8276 47.4197L36.1664 45.9767C35.861 45.8455 35.5557 46.0204 35.5557 46.3265V51.9237C35.5557 52.0986 35.6865 52.2736 35.8174 52.3173L38.4786 53.2793C38.7404 53.3668 39.0458 53.1919 39.0458 52.8858L39.0022 47.7695C39.0458 47.6384 38.9585 47.4634 38.8276 47.4197Z" fill="#CC6666"/>
<path d="M38.7407 28.0916L36.0795 26.6486C35.7741 26.5174 35.4688 26.6923 35.4688 26.9984V32.5956C35.4688 32.7705 35.5996 32.9454 35.7305 32.9892L38.3917 33.9512C38.6535 34.0386 38.9589 33.8637 38.9589 33.5576V28.4414C38.9589 28.3102 38.8716 28.1353 38.7407 28.0916Z" fill="#CC6666"/>
<path d="M53.3114 61.2379C53.1369 61.2379 52.9624 61.1942 52.7878 61.1068C52.4388 60.9318 52.2207 60.5383 52.2207 60.1447V17.2036C52.2207 16.81 52.4388 16.4602 52.7878 16.2415C53.1369 16.0666 53.5295 16.0666 53.8785 16.2415L63.4763 21.8388C63.8253 22.0137 63.9998 22.4072 63.9998 22.8008V54.0228C63.9998 54.4163 63.8253 54.7224 63.4763 54.9411L53.8785 61.1068C53.704 61.1505 53.5295 61.2379 53.3114 61.2379ZM54.402 19.0839V58.1332L61.8185 53.3669V23.413L54.402 19.0839Z" fill="#CC6666"/>
<path d="M53.3117 61.2372C53.0935 61.2372 52.919 61.1935 52.7445 61.0623L47.2476 57.564C46.7241 57.2579 46.5932 56.5583 46.8986 56.0336C47.204 55.5088 47.902 55.3776 48.4255 55.6837L52.221 58.1325V19.0831L48.6873 21.1384C48.1637 21.4445 47.5093 21.2696 47.204 20.7448C46.8986 20.2201 47.0731 19.5642 47.5966 19.2581L52.7881 16.2408C53.1372 16.0659 53.5298 16.0222 53.8788 16.2408C54.2278 16.4157 54.446 16.8093 54.446 17.2028V60.144C54.446 60.5376 54.2278 60.9311 53.8788 61.106C53.6607 61.1498 53.4862 61.2372 53.3117 61.2372Z" fill="#CC6666"/>
</g>
<defs>
<clipPath id="clip0_37_68">
<rect width="64" height="73" fill="white"/>
</clipPath>
</defs>
</svg>
