<svg width="231" height="73" viewBox="0 0 231 73" fill="none" xmlns="http://www.w3.org/2000/svg">
<g clip-path="url(#clip0_3_142)">
<path d="M32.0218 73.0003C31.8037 73.0003 31.6292 72.9566 31.4546 72.8254L15.6182 62.6805C15.3129 62.4618 15.0947 62.112 15.0947 61.7622V10.294C15.0947 9.90042 15.3129 9.55059 15.6182 9.33195L31.4546 0.149012C31.8037 -0.0259009 32.1963 -0.0696292 32.5453 0.149012C32.8943 0.323925 33.1125 0.71748 33.1125 1.11103V71.9071C33.1125 72.3007 32.8943 72.6942 32.5453 72.8691C32.3708 72.9566 32.1963 73.0003 32.0218 73.0003ZM17.276 61.1937L30.9311 69.9393V2.99135L17.276 10.9499V61.1937Z" fill="#CC6666"/>
<path d="M19.7631 17.9467L21.9444 16.7223C22.1625 16.5912 22.4679 16.7661 22.4679 17.0284V21.6636C22.4679 21.7948 22.3806 21.926 22.2498 22.0135L20.0248 22.8006C19.8067 22.888 19.5449 22.7131 19.5449 22.4507V18.2091C19.5885 18.1216 19.6322 17.9905 19.7631 17.9467Z" fill="#CC6666"/>
<path d="M19.85 30.0151L22.0313 28.7907C22.2494 28.6595 22.5548 28.8344 22.5548 29.0968V33.732C22.5548 33.8632 22.4676 33.9944 22.3367 34.0818L20.1117 34.8689C19.8936 35.0001 19.6318 34.8252 19.6318 34.5628V30.3212C19.6755 30.19 19.7191 30.1026 19.85 30.0151Z" fill="#CC6666"/>
<path d="M19.7631 39.8979L21.9444 38.6735C22.1625 38.5423 22.4679 38.7172 22.4679 38.9796V43.6148C22.4679 43.746 22.3806 43.8772 22.2498 43.9646L20.0248 44.7517C19.8067 44.8392 19.5449 44.6643 19.5449 44.4019V40.1603C19.5885 40.0728 19.6322 39.9416 19.7631 39.8979Z" fill="#CC6666"/>
<path d="M25.1722 47.4197L27.8334 45.9767C28.1388 45.8455 28.4442 46.0204 28.4442 46.3265V51.9237C28.4442 52.0986 28.3133 52.2736 28.1825 52.3173L25.5212 53.2793C25.2595 53.3668 24.9541 53.1919 24.9541 52.8858V47.7695C24.9541 47.6384 25.0414 47.4634 25.1722 47.4197Z" fill="#CC6666"/>
<path d="M25.2601 28.0916L27.9213 26.6486C28.2267 26.5174 28.5321 26.6923 28.5321 26.9984V32.5956C28.5321 32.7705 28.4012 32.9454 28.2704 32.9892L25.6091 33.9512C25.3474 34.0386 25.042 33.8637 25.042 33.5576V28.4414C25.042 28.3102 25.1292 28.1353 25.2601 28.0916Z" fill="#CC6666"/>
<path d="M32.0223 73.0001C31.8478 73.0001 31.6733 72.9564 31.4988 72.8689C31.1498 72.694 30.9316 72.3004 30.9316 71.9069V1.11079C30.9316 0.717231 31.1498 0.367404 31.4988 0.148763C31.8478 -0.0261502 32.2404 -0.0261502 32.5894 0.148763L48.4258 9.3317C48.7749 9.50661 48.9494 9.90017 48.9494 10.2937V61.7619C48.9494 62.1555 48.7749 62.4616 48.4258 62.6802L32.5894 72.8252C32.4149 72.9564 32.1968 73.0001 32.0223 73.0001ZM33.113 2.9911V69.8954L46.768 61.1497V10.9496L33.113 2.9911Z" fill="#CC6666"/>
<path d="M10.6885 61.2377C10.4703 61.2377 10.2958 61.194 10.1213 61.0628L0.523517 54.8971C0.174506 54.6785 0 54.3287 0 53.9788V22.7568C0 22.3633 0.218132 22.0135 0.523517 21.7948L10.1213 16.1976C10.4703 16.0227 10.863 16.0227 11.212 16.1976C11.561 16.3725 11.7791 16.7661 11.7791 17.1596V60.1008C11.7791 60.4943 11.561 60.8879 11.212 61.0628C11.0375 61.1503 10.863 61.2377 10.6885 61.2377ZM2.18132 53.3666L9.59782 58.133V19.0837L2.18132 23.4128V53.3666Z" fill="#CC6666"/>
<path d="M10.6883 61.2379C10.5138 61.2379 10.3393 61.1942 10.1648 61.1068C9.81579 60.9318 9.59766 60.5383 9.59766 60.1447V17.2036C9.59766 16.81 9.81579 16.4602 10.1648 16.2415C10.5138 16.0666 10.9064 16.0666 11.2555 16.2415L16.447 19.2588C16.9705 19.5649 17.145 20.2208 16.8396 20.7455C16.5343 21.2703 15.8799 21.4452 15.3563 21.1391L11.779 19.0839V58.1332L15.5745 55.6844C16.098 55.3783 16.7524 55.5095 17.1014 56.0343C17.4504 56.559 17.2759 57.2149 16.7524 57.5648L11.2555 61.063C11.081 61.1505 10.9064 61.2379 10.6883 61.2379Z" fill="#CC6666"/>
<path d="M44.2371 17.9467L42.0557 16.7223C41.8376 16.5912 41.5322 16.7661 41.5322 17.0284V21.6636C41.5322 21.7948 41.6195 21.926 41.7504 22.0135L43.9753 22.8006C44.1934 22.888 44.4552 22.7131 44.4552 22.4507V18.2091C44.4116 18.1216 44.3679 17.9905 44.2371 17.9467Z" fill="#CC6666"/>
<path d="M44.1502 30.0151L41.9688 28.7907C41.7507 28.6595 41.4453 28.8344 41.4453 29.0968V33.732C41.4453 33.8632 41.5326 33.9944 41.6634 34.0818L43.8884 34.8689C44.1065 34.9564 44.3683 34.7815 44.3683 34.5191V30.2775C44.3247 30.19 44.2374 30.1026 44.1502 30.0151Z" fill="#CC6666"/>
<path d="M44.2371 39.8979L42.0557 38.6735C41.8376 38.5423 41.5322 38.7172 41.5322 38.9796V43.6148C41.5322 43.746 41.6195 43.8772 41.7504 43.9646L43.9753 44.7517C44.1934 44.8392 44.4552 44.6643 44.4552 44.4019V40.1603C44.4116 40.0728 44.3679 39.9416 44.2371 39.8979Z" fill="#CC6666"/>
<path d="M38.8276 47.4197L36.1664 45.9767C35.861 45.8455 35.5557 46.0204 35.5557 46.3265V51.9237C35.5557 52.0986 35.6865 52.2736 35.8174 52.3173L38.4786 53.2793C38.7404 53.3668 39.0458 53.1919 39.0458 52.8858L39.0022 47.7695C39.0458 47.6384 38.9585 47.4634 38.8276 47.4197Z" fill="#CC6666"/>
<path d="M38.7407 28.0916L36.0795 26.6486C35.7741 26.5174 35.4688 26.6923 35.4688 26.9984V32.5956C35.4688 32.7705 35.5996 32.9454 35.7305 32.9892L38.3917 33.9512C38.6535 34.0386 38.9589 33.8637 38.9589 33.5576V28.4414C38.9589 28.3102 38.8716 28.1353 38.7407 28.0916Z" fill="#CC6666"/>
<path d="M53.3114 61.2379C53.1369 61.2379 52.9624 61.1942 52.7878 61.1068C52.4388 60.9318 52.2207 60.5383 52.2207 60.1447V17.2036C52.2207 16.81 52.4388 16.4602 52.7878 16.2415C53.1369 16.0666 53.5295 16.0666 53.8785 16.2415L63.4763 21.8388C63.8253 22.0137 63.9998 22.4072 63.9998 22.8008V54.0228C63.9998 54.4163 63.8253 54.7224 63.4763 54.9411L53.8785 61.1068C53.704 61.1505 53.5295 61.2379 53.3114 61.2379ZM54.402 19.0839V58.1332L61.8185 53.3669V23.413L54.402 19.0839Z" fill="#CC6666"/>
<path d="M53.3117 61.2372C53.0935 61.2372 52.919 61.1935 52.7445 61.0623L47.2476 57.564C46.7241 57.2579 46.5932 56.5583 46.8986 56.0336C47.204 55.5088 47.902 55.3776 48.4255 55.6837L52.221 58.1325V19.0831L48.6873 21.1384C48.1637 21.4445 47.5093 21.2696 47.204 20.7448C46.8986 20.2201 47.0731 19.5642 47.5966 19.2581L52.7881 16.2408C53.1372 16.0659 53.5298 16.0222 53.8788 16.2408C54.2278 16.4157 54.446 16.8093 54.446 17.2028V60.144C54.446 60.5376 54.2278 60.9311 53.8788 61.106C53.6607 61.1498 53.4862 61.2372 53.3117 61.2372Z" fill="#CC6666"/>
</g>
<path d="M87.32 29.008H90.416L97.808 46H93.584L92.12 42.4H85.52L84.104 46H79.976L87.32 29.008ZM88.76 33.952L86.696 39.232H90.848L88.76 33.952ZM107.917 33.16C107.613 32.776 107.197 32.496 106.669 32.32C106.157 32.128 105.669 32.032 105.205 32.032C104.933 32.032 104.653 32.064 104.365 32.128C104.077 32.192 103.805 32.296 103.549 32.44C103.293 32.568 103.085 32.744 102.925 32.968C102.765 33.192 102.685 33.464 102.685 33.784C102.685 34.296 102.877 34.688 103.261 34.96C103.645 35.232 104.125 35.464 104.701 35.656C105.293 35.848 105.925 36.04 106.597 36.232C107.269 36.424 107.893 36.696 108.469 37.048C109.061 37.4 109.549 37.872 109.933 38.464C110.317 39.056 110.509 39.848 110.509 40.84C110.509 41.784 110.333 42.608 109.981 43.312C109.629 44.016 109.149 44.6 108.541 45.064C107.949 45.528 107.253 45.872 106.453 46.096C105.669 46.32 104.837 46.432 103.957 46.432C102.853 46.432 101.829 46.264 100.885 45.928C99.9411 45.592 99.0611 45.048 98.2451 44.296L100.909 41.368C101.293 41.88 101.773 42.28 102.349 42.568C102.941 42.84 103.549 42.976 104.173 42.976C104.477 42.976 104.781 42.944 105.085 42.88C105.405 42.8 105.685 42.688 105.925 42.544C106.181 42.4 106.381 42.216 106.525 41.992C106.685 41.768 106.765 41.504 106.765 41.2C106.765 40.688 106.565 40.288 106.165 40C105.781 39.696 105.293 39.44 104.701 39.232C104.109 39.024 103.469 38.816 102.781 38.608C102.093 38.4 101.453 38.12 100.861 37.768C100.269 37.416 99.7731 36.952 99.3731 36.376C98.9891 35.8 98.7971 35.04 98.7971 34.096C98.7971 33.184 98.9731 32.384 99.3251 31.696C99.6931 31.008 100.173 30.432 100.765 29.968C101.373 29.504 102.069 29.16 102.853 28.936C103.637 28.696 104.445 28.576 105.277 28.576C106.237 28.576 107.165 28.712 108.061 28.984C108.957 29.256 109.765 29.712 110.485 30.352L107.917 33.16ZM113.442 29.008H117.186V36.064L123.786 29.008H128.682L121.122 36.904L129.33 46H124.098L117.186 37.936V46H113.442V29.008ZM130.571 29.008H134.315V46H130.571V29.008ZM160.206 44.8C159.102 45.376 157.95 45.792 156.75 46.048C155.55 46.304 154.326 46.432 153.078 46.432C151.75 46.432 150.526 46.224 149.406 45.808C148.286 45.392 147.318 44.8 146.502 44.032C145.686 43.248 145.046 42.304 144.582 41.2C144.134 40.096 143.91 38.864 143.91 37.504C143.91 36.144 144.134 34.912 144.582 33.808C145.046 32.704 145.686 31.768 146.502 31C147.318 30.216 148.286 29.616 149.406 29.2C150.526 28.784 151.75 28.576 153.078 28.576C154.438 28.576 155.686 28.744 156.822 29.08C157.974 29.4 158.982 29.96 159.846 30.76L157.206 33.64C156.694 33.112 156.118 32.712 155.478 32.44C154.838 32.168 154.038 32.032 153.078 32.032C152.278 32.032 151.55 32.168 150.894 32.44C150.254 32.712 149.702 33.096 149.238 33.592C148.774 34.072 148.414 34.648 148.158 35.32C147.918 35.992 147.798 36.72 147.798 37.504C147.798 38.304 147.918 39.04 148.158 39.712C148.414 40.368 148.774 40.944 149.238 41.44C149.702 41.92 150.254 42.296 150.894 42.568C151.55 42.84 152.278 42.976 153.078 42.976C153.894 42.976 154.598 42.888 155.19 42.712C155.782 42.52 156.254 42.328 156.606 42.136V39.376H153.558V35.92H160.206V44.8ZM163.501 29.008H170.077C170.941 29.008 171.757 29.096 172.525 29.272C173.309 29.432 173.989 29.712 174.565 30.112C175.157 30.496 175.621 31.024 175.957 31.696C176.309 32.352 176.485 33.176 176.485 34.168C176.485 35.368 176.173 36.392 175.549 37.24C174.925 38.072 174.013 38.6 172.813 38.824L177.133 46H172.645L169.093 39.208H167.245V46H163.501V29.008ZM167.245 36.04H169.453C169.789 36.04 170.141 36.032 170.509 36.016C170.893 35.984 171.237 35.912 171.541 35.8C171.845 35.672 172.093 35.48 172.285 35.224C172.493 34.968 172.597 34.608 172.597 34.144C172.597 33.712 172.509 33.368 172.333 33.112C172.157 32.856 171.933 32.664 171.661 32.536C171.389 32.392 171.077 32.296 170.725 32.248C170.373 32.2 170.029 32.176 169.693 32.176H167.245V36.04ZM178.152 37.504C178.152 36.144 178.376 34.912 178.824 33.808C179.288 32.704 179.928 31.768 180.744 31C181.56 30.216 182.528 29.616 183.648 29.2C184.768 28.784 185.992 28.576 187.32 28.576C188.648 28.576 189.872 28.784 190.992 29.2C192.112 29.616 193.08 30.216 193.896 31C194.712 31.768 195.344 32.704 195.792 33.808C196.256 34.912 196.488 36.144 196.488 37.504C196.488 38.864 196.256 40.096 195.792 41.2C195.344 42.304 194.712 43.248 193.896 44.032C193.08 44.8 192.112 45.392 190.992 45.808C189.872 46.224 188.648 46.432 187.32 46.432C185.992 46.432 184.768 46.224 183.648 45.808C182.528 45.392 181.56 44.8 180.744 44.032C179.928 43.248 179.288 42.304 178.824 41.2C178.376 40.096 178.152 38.864 178.152 37.504ZM182.04 37.504C182.04 38.304 182.16 39.04 182.4 39.712C182.656 40.368 183.016 40.944 183.48 41.44C183.944 41.92 184.496 42.296 185.136 42.568C185.792 42.84 186.52 42.976 187.32 42.976C188.12 42.976 188.84 42.84 189.48 42.568C190.136 42.296 190.696 41.92 191.16 41.44C191.624 40.944 191.976 40.368 192.216 39.712C192.472 39.04 192.6 38.304 192.6 37.504C192.6 36.72 192.472 35.992 192.216 35.32C191.976 34.648 191.624 34.072 191.16 33.592C190.696 33.096 190.136 32.712 189.48 32.44C188.84 32.168 188.12 32.032 187.32 32.032C186.52 32.032 185.792 32.168 185.136 32.44C184.496 32.712 183.944 33.096 183.48 33.592C183.016 34.072 182.656 34.648 182.4 35.32C182.16 35.992 182.04 36.72 182.04 37.504ZM213.361 39.448C213.361 40.456 213.209 41.384 212.905 42.232C212.601 43.08 212.145 43.816 211.537 44.44C210.945 45.064 210.201 45.552 209.305 45.904C208.409 46.256 207.377 46.432 206.209 46.432C205.025 46.432 203.985 46.256 203.089 45.904C202.193 45.552 201.441 45.064 200.833 44.44C200.241 43.816 199.793 43.08 199.489 42.232C199.185 41.384 199.033 40.456 199.033 39.448V29.008H202.777V39.304C202.777 39.832 202.857 40.32 203.017 40.768C203.193 41.216 203.433 41.608 203.737 41.944C204.041 42.264 204.401 42.52 204.817 42.712C205.249 42.888 205.713 42.976 206.209 42.976C206.705 42.976 207.161 42.888 207.577 42.712C207.993 42.52 208.353 42.264 208.657 41.944C208.961 41.608 209.193 41.216 209.353 40.768C209.529 40.32 209.617 39.832 209.617 39.304V29.008H213.361V39.448ZM216.822 29.008H223.134C224.014 29.008 224.846 29.088 225.63 29.248C226.414 29.408 227.094 29.688 227.67 30.088C228.262 30.472 228.726 31 229.062 31.672C229.414 32.328 229.59 33.16 229.59 34.168C229.59 35.16 229.43 35.992 229.11 36.664C228.79 37.336 228.35 37.872 227.79 38.272C227.23 38.672 226.566 38.96 225.798 39.136C225.03 39.296 224.198 39.376 223.302 39.376H220.566V46H216.822V29.008ZM220.566 36.208H223.062C223.398 36.208 223.718 36.176 224.022 36.112C224.342 36.048 224.622 35.944 224.862 35.8C225.118 35.64 225.318 35.432 225.462 35.176C225.622 34.904 225.702 34.568 225.702 34.168C225.702 33.736 225.598 33.392 225.39 33.136C225.198 32.864 224.942 32.656 224.622 32.512C224.318 32.368 223.974 32.28 223.59 32.248C223.206 32.2 222.838 32.176 222.486 32.176H220.566V36.208Z" fill="black"/>
<defs>
<clipPath id="clip0_3_142">
<rect width="64" height="73" fill="white"/>
</clipPath>
</defs>
</svg>
